{
  "accessors": [
    {
      "bufferView": 2,
      "componentType": 5126,
      "count": 18720,
      "max": [
        0.6243392825126648,
        4.127047061920166,
        0.1485857218503952
      ],
      "min": [
        -0.6217572689056396,
        2.0951099395751953,
        -0.047926370054483414
      ],
      "type": "VEC3"
    },
    {
      "bufferView": 2,
      "byteOffset": 224640,
      "componentType": 5126,
      "count": 18720,
      "max": [
        0.9994772672653198,
        0.9996100664138794,
        0.9994376301765442
      ],
      "min": [
        -0.999479353427887,
        -0.9998146891593933,
        -0.9994723796844482
      ],
      "type": "VEC3"
    },
    {
      "bufferView": 1,
      "componentType": 5126,
      "count": 18720,
      "max": [
        0.875,
        1.0
      ],
      "min": [
        0.125,
        0.0
      ],
      "type": "VEC2"
    },
    {
      "bufferView": 0,
      "componentType": 5125,
      "count": 28080,
      "type": "SCALAR"
    },
    {
      "bufferView": 2,
      "byteOffset": 449280,
      "componentType": 5126,
      "count": 18720,
      "max": [
        0.5161173939704895,
        4.102039337158203,
        0.12100934237241745
      ],
      "min": [
        -0.5174970030784607,
        2.0911574363708496,
        0.013150742277503014
      ],
      "type": "VEC3"
    },
    {
      "bufferView": 2,
      "byteOffset": 673920,
      "componentType": 5126,
      "count": 18720,
      "max": [
        0.9998329877853394,
        0.9999384880065918,
        0.7974531054496765
      ],
      "min": [
        -0.9969086050987244,
        -0.9999468326568604,
        -0.7934962511062622
      ],
      "type": "VEC3"
    },
    {
      "bufferView": 1,
      "byteOffset": 149760,
      "componentType": 5126,
      "count": 18720,
      "max": [
        0.875,
        1.0
      ],
      "min": [
        0.125,
        0.0
      ],
      "type": "VEC2"
    },
    {
      "bufferView": 0,
      "byteOffset": 112320,
      "componentType": 5125,
      "count": 28080,
      "type": "SCALAR"
    },
    {
      "bufferView": 2,
      "byteOffset": 898560,
      "componentType": 5126,
      "count": 18720,
      "max": [
        0.6149048209190369,
        4.144270896911621,
        0.07156505435705185
      ],
      "min": [
        -0.6217628717422485,
        2.093797445297241,
        -0.12452132999897003
      ],
      "type": "VEC3"
    },
    {
      "bufferView": 2,
      "byteOffset": 1123200,
      "componentType": 5126,
      "count": 18720,
      "max": [
        0.9969081282615662,
        0.9997952580451965,
        0.8704692125320435
      ],
      "min": [
        -0.9969927072525024,
        -0.9998006820678711,
        -0.8752052783966064
      ],
      "type": "VEC3"
    },
    {
      "bufferView": 1,
      "byteOffset": 299520,
      "componentType": 5126,
      "count": 18720,
      "max": [
        0.875,
        1.0
      ],
      "min": [
        0.125,
        0.0
      ],
      "type": "VEC2"
    },
    {
      "bufferView": 0,
      "byteOffset": 224640,
      "componentType": 5125,
      "count": 28080,
      "type": "SCALAR"
    },
    {
      "bufferView": 2,
      "byteOffset": 1347840,
      "componentType": 5126,
      "count": 18720,
      "max": [
        0.6197577118873596,
        4.12429141998291,
        0.07339871674776077
      ],
      "min": [
        -0.6189785599708557,
        2.0858871936798096,
        -0.09751478582620621
      ],
      "type": "VEC3"
    },
    {
      "bufferView": 2,
      "byteOffset": 1572480,
      "componentType": 5126,
      "count": 18720,
      "max": [
        0.9652776718139648,
        0.9998340606689453,
        0.8286637663841248
      ],
      "min": [
        -0.987045407295227,
        -0.9998241066932678,
        -0.8334358334541321
      ],
      "type": "VEC3"
    },
    {
      "bufferView": 1,
      "byteOffset": 449280,
      "componentType": 5126,
      "count": 18720,
      "max": [
        0.875,
        1.0
      ],
      "min": [
        0.125,
        0.0
      ],
      "type": "VEC2"
    },
    {
      "bufferView": 0,
      "byteOffset": 336960,
      "componentType": 5125,
      "count": 28080,
      "type": "SCALAR"
    },
    {
      "bufferView": 2,
      "byteOffset": 1797120,
      "componentType": 5126,
      "count": 18720,
      "max": [
        0.5136069059371948,
        4.124693870544434,
        0.14967326819896698
      ],
      "min": [
        -0.5016390681266785,
        2.0932517051696777,
        0.04272039607167244
      ],
      "type": "VEC3"
    },
    {
      "bufferView": 2,
      "byteOffset": 2021760,
      "componentType": 5126,
      "count": 18720,
      "max": [
        0.9991099834442139,
        0.9999710917472839,
        0.9977245926856995
      ],
      "min": [
        -0.9991108775138855,
        -0.9999683499336243,
        -0.9991217851638794
      ],
      "type": "VEC3"
    },
    {
      "bufferView": 1,
      "byteOffset": 599040,
      "componentType": 5126,
      "count": 18720,
      "max": [
        0.875,
        1.0
      ],
      "min": [
        0.125,
        0.0
      ],
      "type": "VEC2"
    },
    {
      "bufferView": 0,
      "byteOffset": 449280,
      "componentType": 5125,
      "count": 28080,
      "type": "SCALAR"
    },
    {
      "bufferView": 2,
      "byteOffset": 2246400,
      "componentType": 5126,
      "count": 18720,
      "max": [
        0.6362737417221069,
        4.104128837585449,
        0.12152288854122162
      ],
      "min": [
        -0.6332886815071106,
        2.1033148765563965,
        -0.06915101408958435
      ],
      "type": "VEC3"
    },
    {
      "bufferView": 2,
      "byteOffset": 2471040,
      "componentType": 5126,
      "count": 18720,
      "max": [
        0.9872392416000366,
        0.9990886449813843,
        0.9862055778503418
      ],
      "min": [
        -0.9865833520889282,
        -0.9991139769554138,
        -0.9932242035865784
      ],
      "type": "VEC3"
    },
    {
      "bufferView": 1,
      "byteOffset": 748800,
      "componentType": 5126,
      "count": 18720,
      "max": [
        0.875,
        1.0
      ],
      "min": [
        0.125,
        0.0
      ],
      "type": "VEC2"
    },
    {
      "bufferView": 0,
      "byteOffset": 561600,
      "componentType": 5125,
      "count": 28080,
      "type": "SCALAR"
    },
    {
      "bufferView": 2,
      "byteOffset": 2695680,
      "componentType": 5126,
      "count": 18720,
      "max": [
        0.49746939539909363,
        4.137836456298828,
        -0.010570952668786049
      ],
      "min": [
        -0.5095224976539612,
        2.0927276611328125,
        -0.13911689817905426
      ],
      "type": "VEC3"
    },
    {
      "bufferView": 2,
      "byteOffset": 2920320,
      "componentType": 5126,
      "count": 18720,
      "max": [
        0.998629629611969,
        0.9998010993003845,
        0.9650439620018005
      ],
      "min": [
        -0.9991592168807983,
        -0.999799907207489,
        -0.9785848259925842
      ],
      "type": "VEC3"
    },
    {
      "bufferView": 1,
      "byteOffset": 898560,
      "componentType": 5126,
      "count": 18720,
      "max": [
        0.875,
        1.0
      ],
      "min": [
        0.125,
        0.0
      ],
      "type": "VEC2"
    },
    {
      "bufferView": 0,
      "byteOffset": 673920,
      "componentType": 5125,
      "count": 28080,
      "type": "SCALAR"
    },
    {
      "bufferView": 2,
      "byteOffset": 3144960,
      "componentType": 5126,
      "count": 18720,
      "max": [
        0.518297553062439,
        4.119944095611572,
        0.014264375902712345
      ],
      "min": [
        -0.5090128779411316,
        2.0842978954315186,
        -0.11119355261325836
      ],
      "type": "VEC3"
    },
    {
      "bufferView": 2,
      "byteOffset": 3369600,
      "componentType": 5126,
      "count": 18720,
      "max": [
        0.9984824061393738,
        0.9998612403869629,
        0.8690344095230103
      ],
      "min": [
        -0.9876410365104675,
        -0.9998619556427002,
        -0.8691217303276062
      ],
      "type": "VEC3"
    },
    {
      "bufferView": 1,
      "byteOffset": 1048320,
      "componentType": 5126,
      "count": 18720,
      "max": [
        0.875,
        1.0
      ],
      "min": [
        0.125,
        0.0
      ],
      "type": "VEC2"
    },
    {
      "bufferView": 0,
      "byteOffset": 786240,
      "componentType": 5125,
      "count": 28080,
      "type": "SCALAR"
    },
    {
      "bufferView": 2,
      "byteOffset": 3594240,
      "componentType": 5126,
      "count": 11826,
      "max": [
        0.6447526216506958,
        4.142387866973877,
        0.14995655417442322
      ],
      "min": [
        -0.6406399011611938,
        2.090628147125244,
        -0.1353517472743988
      ],
      "type": "VEC3"
    },
    {
      "bufferView": 2,
      "byteOffset": 3736152,
      "componentType": 5126,
      "count": 11826,
      "max": [
        0.9998786449432373,
        0.9999945759773254,
        0.9999865293502808
      ],
      "min": [
        -0.9998335242271423,
        -0.999930202960968,
        -0.9999960064888
      ],
      "type": "VEC3"
    },
    {
      "bufferView": 1,
      "byteOffset": 1198080,
      "componentType": 5126,
      "count": 11826,
      "max": [
        0.7280435562133789,
        1.9059780836105347
      ],
      "min": [
        -0.2997504770755768,
        -0.9372038841247559
      ],
      "type": "VEC2"
    },
    {
      "bufferView": 0,
      "byteOffset": 898560,
      "componentType": 5125,
      "count": 67200,
      "type": "SCALAR"
    },
    {
      "bufferView": 2,
      "byteOffset": 3878064,
      "componentType": 5126,
      "count": 19344,
      "max": [
        1.0371285676956177,
        2.372873544692993,
        0.15284445881843567
      ],
      "min": [
        -1.0357745885849,
        2.3205509185791016,
        -0.14660973846912384
      ],
      "type": "VEC3"
    },
    {
      "bufferView": 2,
      "byteOffset": 4110192,
      "componentType": 5126,
      "count": 19344,
      "max": [
        0.999937891960144,
        0.9999961256980896,
        0.9999919533729553
      ],
      "min": [
        -0.9998754262924194,
        -0.9999971985816956,
        -0.9999984502792358
      ],
      "type": "VEC3"
    },
    {
      "bufferView": 1,
      "byteOffset": 1292688,
      "componentType": 5126,
      "count": 19344,
      "max": [
        0.875,
        1.0
      ],
      "min": [
        0.125,
        0.0
      ],
      "type": "VEC2"
    },
    {
      "bufferView": 0,
      "byteOffset": 1167360,
      "componentType": 5125,
      "count": 29016,
      "type": "SCALAR"
    },
    {
      "bufferView": 2,
      "byteOffset": 4342320,
      "componentType": 5126,
      "count": 19344,
      "max": [
        1.0356309413909912,
        2.386979579925537,
        0.13628508150577545
      ],
      "min": [
        -1.03426992893219,
        2.3378491401672363,
        -0.13096828758716583
      ],
      "type": "VEC3"
    },
    {
      "bufferView": 2,
      "byteOffset": 4574448,
      "componentType": 5126,
      "count": 19344,
      "max": [
        0.9999867081642151,
        0.9999973177909851,
        0.9998511075973511
      ],
      "min": [
        -0.9999682307243347,
        -0.9999984502792358,
        -0.9999971985816956
      ],
      "type": "VEC3"
    },
    {
      "bufferView": 1,
      "byteOffset": 1447440,
      "componentType": 5126,
      "count": 19344,
      "max": [
        0.875,
        1.0
      ],
      "min": [
        0.125,
        0.0
      ],
      "type": "VEC2"
    },
    {
      "bufferView": 0,
      "byteOffset": 1283424,
      "componentType": 5125,
      "count": 29016,
      "type": "SCALAR"
    },
    {
      "bufferView": 2,
      "byteOffset": 4806576,
      "componentType": 5126,
      "count": 13485,
      "max": [
        1.0487613677978516,
        2.3966329097747803,
        0.14973147213459015
      ],
      "min": [
        -1.0496824979782104,
        0.02250964753329754,
        -0.1466197669506073
      ],
      "type": "VEC3"
    },
    {
      "bufferView": 2,
      "byteOffset": 4968396,
      "componentType": 5126,
      "count": 13485,
      "max": [
        0.9999958872795105,
        0.9999995827674866,
        0.9999963045120239
      ],
      "min": [
        -0.9999998211860657,
        -0.9999696612358093,
        -0.9999951720237732
      ],
      "type": "VEC3"
    },
    {
      "bufferView": 1,
      "byteOffset": 1602192,
      "componentType": 5126,
      "count": 13485,
      "max": [
        1.966844081878662,
        3.619422435760498
      ],
      "min": [
        -1.6965489387512207,
        -0.599220335483551
      ],
      "type": "VEC2"
    },
    {
      "bufferView": 0,
      "byteOffset": 1399488,
      "componentType": 5125,
      "count": 77760,
      "type": "SCALAR"
    },
    {
      "bufferView": 2,
      "byteOffset": 5130216,
      "componentType": 5126,
      "count": 4749,
      "max": [
        1.0491061210632324,
        2.3964169025421143,
        0.16945846378803253
      ],
      "min": [
        -1.0493664741516113,
        0.023229654878377914,
        -0.037913937121629715
      ],
      "type": "VEC3"
    },
    {
      "bufferView": 2,
      "byteOffset": 5187204,
      "componentType": 5126,
      "count": 4749,
      "max": [
        0.9999580979347229,
        0.999970018863678,
        0.9999735355377197
      ],
      "min": [
        -0.9999998211860657,
        -0.9999309182167053,
        -0.9999773502349854
      ],
      "type": "VEC3"
    },
    {
      "bufferView": 1,
      "byteOffset": 1710072,
      "componentType": 5126,
      "count": 4749,
      "max": [
        0.9944854378700256,
        0.997435450553894
      ],
      "min": [
        0.011319718323647976,
        0.008637030608952045
      ],
      "type": "VEC2"
    },
    {
      "bufferView": 0,
      "byteOffset": 1710528,
      "componentType": 5125,
      "count": 27648,
      "type": "SCALAR"
    }
  ],
  "asset": {
    "extras": {
      "author": "MoonOctopus (https://sketchfab.com/MoonOctopus)",
      "license": "CC-BY-4.0 (http://creativecommons.org/licenses/by/4.0/)",
      "source": "https://sketchfab.com/3d-models/uploads-files-2167121--tote-bag-a0e7535ca3464ff183d66e70b4cab3e4",
      "title": "Uploads_files_2167121_ Tote Bag"
    },
    "generator": "Sketchfab-15.27.0",
    "version": "2.0"
  },
  "bufferViews": [
    {
      "buffer": 0,
      "byteLength": 1821120,
      "name": "floatBufferViews",
      "target": 34963
    },
    {
      "buffer": 0,
      "byteLength": 1748064,
      "byteOffset": 1821120,
      "byteStride": 8,
      "name": "floatBufferViews",
      "target": 34962
    },
    {
      "buffer": 0,
      "byteLength": 5244192,
      "byteOffset": 3569184,
      "byteStride": 12,
      "name": "floatBufferViews",
      "target": 34962
    }
  ],
  "buffers": [
    {
      "byteLength": 8813376,
      "uri": "scene.bin"
    }
  ],
  "materials": [
    {
      "doubleSided": true,
      "name": "Chi.002",
      "pbrMetallicRoughness": {
        "baseColorFactor": [
          0.8,
          0.199624,
          0.0549534,
          1.0
        ],
        "metallicFactor": 0.0,
        "roughnessFactor": 0.5
      }
    },
    {
      "doubleSided": true,
      "name": "Tui.002"
    },
    {
      "doubleSided": true,
      "name": "Mat_Truoc_Tui.002"
    }
  ],
  "meshes": [
    {
      "name": "Object_0",
      "primitives": [
        {
          "attributes": {
            "NORMAL": 1,
            "POSITION": 0,
            "TEXCOORD_0": 2
          },
          "indices": 3,
          "material": 0,
          "mode": 4
        }
      ]
    },
    {
      "name": "Object_1",
      "primitives": [
        {
          "attributes": {
            "NORMAL": 5,
            "POSITION": 4,
            "TEXCOORD_0": 6
          },
          "indices": 7,
          "material": 0,
          "mode": 4
        }
      ]
    },
    {
      "name": "Object_2",
      "primitives": [
        {
          "attributes": {
            "NORMAL": 9,
            "POSITION": 8,
            "TEXCOORD_0": 10
          },
          "indices": 11,
          "material": 0,
          "mode": 4
        }
      ]
    },
    {
      "name": "Object_3",
      "primitives": [
        {
          "attributes": {
            "NORMAL": 13,
            "POSITION": 12,
            "TEXCOORD_0": 14
          },
          "indices": 15,
          "material": 0,
          "mode": 4
        }
      ]
    },
    {
      "name": "Object_4",
      "primitives": [
        {
          "attributes": {
            "NORMAL": 17,
            "POSITION": 16,
            "TEXCOORD_0": 18
          },
          "indices": 19,
          "material": 0,
          "mode": 4
        }
      ]
    },
    {
      "name": "Object_5",
      "primitives": [
        {
          "attributes": {
            "NORMAL": 21,
            "POSITION": 20,
            "TEXCOORD_0": 22
          },
          "indices": 23,
          "material": 0,
          "mode": 4
        }
      ]
    },
    {
      "name": "Object_6",
      "primitives": [
        {
          "attributes": {
            "NORMAL": 25,
            "POSITION": 24,
            "TEXCOORD_0": 26
          },
          "indices": 27,
          "material": 0,
          "mode": 4
        }
      ]
    },
    {
      "name": "Object_7",
      "primitives": [
        {
          "attributes": {
            "NORMAL": 29,
            "POSITION": 28,
            "TEXCOORD_0": 30
          },
          "indices": 31,
          "material": 0,
          "mode": 4
        }
      ]
    },
    {
      "name": "Object_8",
      "primitives": [
        {
          "attributes": {
            "NORMAL": 33,
            "POSITION": 32,
            "TEXCOORD_0": 34
          },
          "indices": 35,
          "material": 1,
          "mode": 4
        }
      ]
    },
    {
      "name": "Object_9",
      "primitives": [
        {
          "attributes": {
            "NORMAL": 37,
            "POSITION": 36,
            "TEXCOORD_0": 38
          },
          "indices": 39,
          "material": 0,
          "mode": 4
        }
      ]
    },
    {
      "name": "Object_10",
      "primitives": [
        {
          "attributes": {
            "NORMAL": 41,
            "POSITION": 40,
            "TEXCOORD_0": 42
          },
          "indices": 43,
          "material": 0,
          "mode": 4
        }
      ]
    },
    {
      "name": "Object_11",
      "primitives": [
        {
          "attributes": {
            "NORMAL": 45,
            "POSITION": 44,
            "TEXCOORD_0": 46
          },
          "indices": 47,
          "material": 1,
          "mode": 4
        }
      ]
    },
    {
      "name": "Object_12",
      "primitives": [
        {
          "attributes": {
            "NORMAL": 49,
            "POSITION": 48,
            "TEXCOORD_0": 50
          },
          "indices": 51,
          "material": 2,
          "mode": 4
        }
      ]
    }
  ],
  "nodes": [
    {
      "children": [
        1
      ],
      "matrix": [
        1.0,
        0.0,
        0.0,
        0.0,
        0.0,
        2.220446049250313e-16,
        -1.0,
        0.0,
        0.0,
        1.0,
        2.220446049250313e-16,
        0.0,
        0.0,
        0.0,
        0.0,
        1.0
      ],
      "name": "Sketchfab_model"
    },
    {
      "children": [
        2
      ],
      "name": "root"
    },
    {
      "children": [
        3,
        5,
        7,
        9,
        11,
        13,
        15,
        17,
        19,
        21,
        23,
        25
      ],
      "matrix": [
        1.0,
        0.0,
        0.0,
        0.0,
        0.0,
        2.220446049250313e-16,
        1.0,
        0.0,
        0.0,
        -1.0,
        2.220446049250313e-16,
        0.0,
        0.0,
        0.0,
        0.0,
        1.0
      ],
      "name": "GLTF_SceneRootNode"
    },
    {
      "children": [
        4
      ],
      "matrix": [
        1.821969267269274,
        0.0,
        0.00011191006491731709,
        0.0,
        -0.0,
        1.8219687938690186,
        0.0,
        0.0,
        -0.00011191006491731709,
        -0.0,
        1.821969267269274,
        0.0,
        -0.0019277334213256836,
        -0.03395772725343704,
        0.10598674416542053,
        1.0
      ],
      "name": "Chi Tay Cam.001_3"
    },
    {
      "mesh": 0,
      "name": "Object_4"
    },
    {
      "children": [
        6
      ],
      "matrix": [
        1.821969267269274,
        0.0,
        0.00011191006491731709,
        0.0,
        -0.0,
        1.8219687938690186,
        0.0,
        0.0,
        -0.00011191006491731709,
        -0.0,
        1.821969267269274,
        0.0,
        -0.0019277334213256836,
        -0.03395772725343704,
        0.10598674416542053,
        1.0
      ],
      "name": "Chi Tay Cam.002_6"
    },
    {
      "mesh": 1,
      "name": "Object_6"
    },
    {
      "children": [
        8
      ],
      "matrix": [
        1.821969267269274,
        0.0,
        0.00011191006491731709,
        0.0,
        -0.0,
        1.8219687938690186,
        0.0,
        0.0,
        -0.00011191006491731709,
        -0.0,
        1.821969267269274,
        0.0,
        -0.0019277334213256836,
        -0.03395772725343704,
        0.10598674416542053,
        1.0
      ],
      "name": "Chi Tay Cam.003_9"
    },
    {
      "mesh": 2,
      "name": "Object_8"
    },
    {
      "children": [
        10
      ],
      "matrix": [
        1.821969267269274,
        0.0,
        0.00011191006491731709,
        0.0,
        -0.0,
        1.8219687938690186,
        0.0,
        0.0,
        -0.00011191006491731709,
        -0.0,
        1.821969267269274,
        0.0,
        -0.0019277334213256836,
        -0.03395772725343704,
        0.10598674416542053,
        1.0
      ],
      "name": "Chi Tay Cam.004_12"
    },
    {
      "mesh": 3,
      "name": "Object_10"
    },
    {
      "children": [
        12
      ],
      "matrix": [
        1.821969267269274,
        0.0,
        0.00011191006491731709,
        0.0,
        -0.0,
        1.8219687938690186,
        0.0,
        0.0,
        -0.00011191006491731709,
        -0.0,
        1.821969267269274,
        0.0,
        -0.0019277334213256836,
        -0.03395772725343704,
        0.10598674416542053,
        1.0
      ],
      "name": "Chi Tay Cam.005_15"
    },
    {
      "mesh": 4,
      "name": "Object_12"
    },
    {
      "children": [
        14
      ],
      "matrix": [
        1.821969267269274,
        0.0,
        0.00011191006491731709,
        0.0,
        -0.0,
        1.8219687938690186,
        0.0,
        0.0,
        -0.00011191006491731709,
        -0.0,
        1.821969267269274,
        0.0,
        -0.0019277334213256836,
        -0.03395772725343704,
        0.10598674416542053,
        1.0
      ],
      "name": "Chi Tay Cam.006_18"
    },
    {
      "mesh": 5,
      "name": "Object_14"
    },
    {
      "children": [
        16
      ],
      "matrix": [
        1.821969267269274,
        0.0,
        0.00011191006491731709,
        0.0,
        -0.0,
        1.8219687938690186,
        0.0,
        0.0,
        -0.00011191006491731709,
        -0.0,
        1.821969267269274,
        0.0,
        -0.0019277334213256836,
        -0.03395772725343704,
        0.10598674416542053,
        1.0
      ],
      "name": "Chi Tay Cam.007_21"
    },
    {
      "mesh": 6,
      "name": "Object_16"
    },
    {
      "children": [
        18
      ],
      "matrix": [
        1.821969267269274,
        0.0,
        0.00011191006491731709,
        0.0,
        -0.0,
        1.8219687938690186,
        0.0,
        0.0,
        -0.00011191006491731709,
        -0.0,
        1.821969267269274,
        0.0,
        -0.0019277334213256836,
        -0.03395772725343704,
        0.10598674416542053,
        1.0
      ],
      "name": "Chi Tay Cam.008_24"
    },
    {
      "mesh": 7,
      "name": "Object_18"
    },
    {
      "children": [
        20
      ],
      "matrix": [
        1.821969267269274,
        0.0,
        0.00011191006491731709,
        0.0,
        -0.0,
        1.8219687938690186,
        0.0,
        0.0,
        -0.00011191006491731709,
        -0.0,
        1.821969267269274,
        0.0,
        -0.0019277334213256836,
        -0.03395772725343704,
        0.10598674416542053,
        1.0
      ],
      "name": "Tay cam_27"
    },
    {
      "mesh": 8,
      "name": "Object_20"
    },
    {
      "children": [
        22
      ],
      "matrix": [
        1.821969267269274,
        0.0,
        0.00011191006491731709,
        0.0,
        -0.0,
        1.8219687938690186,
        0.0,
        0.0,
        -0.00011191006491731709,
        -0.0,
        1.821969267269274,
        0.0,
        -0.0019277334213256836,
        -0.03395772725343704,
        0.10598674416542053,
        1.0
      ],
      "name": "Thread_28"
    },
    {
      "mesh": 9,
      "name": "Object_22"
    },
    {
      "children": [
        24
      ],
      "matrix": [
        1.821969267269274,
        0.0,
        0.00011191006491731709,
        0.0,
        -0.0,
        1.8219687938690186,
        0.0,
        0.0,
        -0.00011191006491731709,
        -0.0,
        1.821969267269274,
        0.0,
        -0.0019277334213256836,
        -0.03395772725343704,
        0.10598674416542053,
        1.0
      ],
      "name": "Thread-inside_29"
    },
    {
      "mesh": 10,
      "name": "Object_24"
    },
    {
      "children": [
        26,
        27
      ],
      "matrix": [
        1.821969267269274,
        0.0,
        0.00011191006491731709,
        0.0,
        -0.0,
        1.8219687938690186,
        0.0,
        0.0,
        -0.00011191006491731709,
        -0.0,
        1.821969267269274,
        0.0,
        -0.0019277334213256836,
        -0.03395772725343704,
        0.10598674416542053,
        1.0
      ],
      "name": "Tui_30"
    },
    {
      "mesh": 11,
      "name": "Object_26"
    },
    {
      "mesh": 12,
      "name": "Object_27"
    }
  ],
  "scene": 0,
  "scenes": [
    {
      "name": "Sketchfab_Scene",
      "nodes": [
        0
      ]
    }
  ]
}
